PathFileType	4	(X/Y/Z)	s04c0401.trc
DataRate	CameraRate	NumFrames	NumMarkers	Units	OrigDataRate	OrigDataStartFrame	OrigNumFrames
200	200	4	50	mm	200	750	2000
Frame#	Time	racr			lacr			c7			jug			rlel			rdr			llel			ldr			s2			lic			ric			lasi			rasi			rpsi			lpsi			rgt			lgt			rth1			rth2			rth3			rth4			rlfc			rmfc			rsh1			rsh2			rsh3			rsh4			rlmal			rmmal			rcal			rtoe			rmt5			lth1			lth2			lth4			lth3			llfc			lmfc			lsh1			lsh2			lsh3			lsh4			llmal			lmmal			lcal			ltoe			lmt5			SBIKE			LBIKE			RBIKE			
		X1	Y1	Z1	X2	Y2	Z2	X3	Y3	Z3	X4	Y4	Z4	X5	Y5	Z5	X6	Y6	Z6	X7	Y7	Z7	X8	Y8	Z8	X9	Y9	Z9	X10	Y10	Z10	X11	Y11	Z11	X12	Y12	Z12	X13	Y13	Z13	X14	Y14	Z14	X15	Y15	Z15	X16	Y16	Z16	X17	Y17	Z17	X18	Y18	Z18	X19	Y19	Z19	X20	Y20	Z20	X21	Y21	Z21	X22	Y22	Z22	X23	Y23	Z23	X24	Y24	Z24	X25	Y25	Z25	X26	Y26	Z26	X27	Y27	Z27	X28	Y28	Z28	X29	Y29	Z29	X30	Y30	Z30	X31	Y31	Z31	X32	Y32	Z32	X33	Y33	Z33	X34	Y34	Z34	X35	Y35	Z35	X36	Y36	Z36	X37	Y37	Z37	X38	Y38	Z38	X39	Y39	Z39	X40	Y40	Z40	X41	Y41	Z41	X42	Y42	Z42	X43	Y43	Z43	X44	Y44	Z44	X45	Y45	Z45	X46	Y46	Z46	X47	Y47	Z47	X48	Y48	Z48	X49	Y49	Z49	X50	Y50	Z50	
750	3.7500	832.091533	1292.368778	-121.090838	830.678274	1279.408963	-449.345371	850.773256	1375.546117	-286.909358	798.581308	1225.816674	-291.379991	556.930358	1163.587283	21.832103	696.095237	944.132122	-86.546696	589.499711	1167.920637	-594.943506	686.199053	939.196507	-494.541220	249.682200	1279.881065	-290.231743	405.251907	1258.626843	-444.012059	396.582770	1254.080832	-119.625515	436.891496	1201.840136	-403.273569	425.715733	1190.277574	-163.456662	286.604331	1317.334442	-244.892960	287.199339	1320.081441	-320.559668	333.880052	1198.541795	-109.869720	355.425225	1163.535238	-468.812479	380.384445	1037.593878	-93.036791	416.925109	958.437658	-107.669948	412.997040	873.908296	-114.180486	449.837808	967.359504	-122.797074	434.013627	729.808148	-140.911412	397.283117	711.148438	-248.651279	380.400676	614.048566	-107.605353	369.266268	524.448113	-121.004727	315.869838	456.960187	-121.515659	398.631457	516.627853	-146.410356	269.862311	310.635417	-121.337384	286.426053	313.675355	-207.048439	198.285046	308.244424	-150.281279	468.570141	172.819659	-174.316499	404.224752	177.950102	-111.613000	398.060095	1082.682687	-476.279746	464.162849	1025.524295	-472.121537	490.986479	1044.532089	-458.782206	493.756760	941.797302	-476.866039	546.114576	802.058884	-452.669990	553.138240	769.244730	-342.440394	457.314334	726.612765	-480.221636	391.760273	674.133614	-456.524955	305.209672	654.308541	-458.176496	405.584650	653.991559	-425.645715	170.760671	592.046365	-456.010203	165.978239	598.538500	-369.455128	110.833739	648.198650	-418.431018	236.361700	371.137356	-404.773450	175.395591	416.072258	-471.488703	-184.866025	935.057710	-284.855464	-17.481073	79.926712	-485.415530	-17.465658	79.401653	-84.666395	
751	3.7550	831.870409	1294.557933	-122.906617	833.168615	1277.730104	-450.619160	850.786409	1375.862948	-289.448628	800.543710	1225.404426	-292.387757	557.676366	1164.285905	20.003134	696.508362	943.725895	-86.737127	591.392985	1166.880664	-596.603860	686.478890	939.030875	-494.855577	250.005760	1278.193978	-287.620522	403.929404	1259.091332	-443.608566	398.687931	1250.558855	-119.204934	435.986997	1201.850702	-403.762535	427.008828	1187.185821	-164.185360	288.038187	1315.702381	-242.009256	286.979677	1318.681914	-317.777374	335.638424	1195.116870	-109.393764	354.038217	1163.225073	-468.033523	378.429531	1033.940221	-92.092070	412.613432	953.750489	-106.629484	406.134815	869.323355	-112.884291	445.469181	961.750484	-121.631305	423.348624	724.734337	-139.393976	386.908268	706.019552	-247.158285	370.410338	608.829318	-105.954525	359.864779	519.126566	-119.372456	307.018005	451.325906	-119.939845	389.242382	511.540541	-144.596478	262.293803	304.406484	-119.849741	278.512664	307.882230	-205.568662	191.063051	302.810448	-148.617129	459.967699	164.880132	-174.662848	395.993481	170.304294	-111.542811	399.542605	1084.088535	-475.193577	467.591409	1028.417103	-470.759229	493.314293	1047.955605	-458.064445	498.888783	945.632148	-476.618459	553.972977	806.472300	-451.926954	560.471714	773.845738	-341.804823	465.204403	731.527092	-479.506412	399.457905	679.358629	-455.817473	312.499939	660.187560	-457.692258	412.773902	659.340473	-424.910901	177.827300	598.711277	-455.594290	172.829738	605.221780	-369.597637	117.205137	654.670261	-418.102203	245.476861	378.951329	-404.859724	184.115305	423.330091	-471.574097	-184.919875	935.031818	-284.925082	-17.481587	79.718202	-485.278750	-17.459969	79.373022	-84.666824	
752	3.7600	831.678274	1296.841707	-124.922520	835.622606	1275.858650	-451.799035	850.869771	1376.120715	-292.224531	802.476381	1225.007958	-293.475379	558.542797	1164.975682	18.197434	697.170276	943.360334	-86.949186	593.142916	1165.973854	-598.265373	686.692419	939.013589	-495.227123	250.519015	1276.061174	-284.893203	402.236340	1259.452926	-443.103687	401.168087	1247.126155	-118.790224	435.172492	1202.258093	-404.006420	428.711170	1183.986317	-164.581870	289.078183	1312.827021	-239.611450	287.239335	1317.748797	-313.075099	337.415635	1191.732292	-108.894711	352.932419	1163.401622	-467.362923	376.367850	1030.586301	-90.951224	408.107942	949.410506	-105.418410	399.118329	865.141766	-110.752982	441.131712	956.483326	-120.785429	412.599342	720.052252	-137.624757	376.358919	701.375927	-245.562312	360.334834	604.170656	-104.222956	350.405482	514.404693	-117.726271	298.009119	446.230733	-118.436113	379.893214	506.987954	-142.904055	254.423556	298.792464	-118.688180	270.404784	302.657656	-204.337636	183.499237	298.118468	-147.187035	450.786157	157.887304	-174.347109	387.250072	163.137789	-111.921493	401.428876	1085.736108	-473.346063	470.203388	1032.027192	-470.769777	496.502502	1052.083423	-456.718644	503.840529	949.851242	-476.354744	561.493669	811.427028	-451.459127	567.599655	778.787271	-341.589483	473.064334	736.638338	-478.830839	406.785125	684.828143	-455.293577	320.057878	665.778136	-457.216470	420.219114	664.725608	-424.155819	185.233052	604.934962	-455.174068	179.890024	611.920935	-368.669114	124.279660	660.537372	-417.732796	255.059267	386.300846	-404.903283	193.409487	430.039504	-471.660903	-185.038659	934.947832	-284.888597	-17.488767	79.662222	-485.313330	-17.472577	79.373530	-84.679034	
753	3.7650	831.494550	1298.962319	-127.008284	838.039825	1273.926467	-452.937735	850.865337	1376.230092	-295.088350	804.452377	1224.466970	-294.598748	559.205520	1165.497782	16.221414	697.986279	942.884761	-87.213563	594.700517	1165.352329	-600.063635	686.879897	939.136937	-495.634606	250.948990	1274.091288	-282.379705	400.828902	1259.762694	-442.741211	403.756806	1243.816450	-118.434314	434.292837	1202.498576	-404.582524	430.964603	1180.371606	-164.011986	291.745535	1309.109871	-239.290222	287.232860	1315.913978	-310.850181	339.139066	1188.472676	-108.325346	352.230397	1164.183621	-466.821834	374.175652	1027.535698	-89.766650	403.558821	945.509720	-104.016025	391.926363	861.450137	-109.397226	436.724856	951.551937	-119.622835	401.883196	715.892676	-135.774120	365.930699	697.298300	-243.511958	350.435135	599.968635	-102.497761	340.964531	510.239690	-116.122330	288.876310	441.691597	-117.018792	369.248108	502.652157	-141.987731	246.148437	293.922774	-117.615380	262.162968	297.862004	-203.209720	175.697779	293.989663	-145.882439	441.480983	151.161954	-174.780105	378.284267	156.847004	-112.025437	403.194347	1087.650223	-471.658526	472.988506	1035.875635	-470.591856	499.041674	1056.332683	-456.188501	508.556554	954.342988	-476.104237	568.830073	816.878939	-451.266441	575.699612	783.814899	-340.639387	481.082079	741.840120	-478.117188	414.700691	690.060644	-454.615115	327.883457	671.155376	-456.751234	427.484738	670.043565	-423.586596	192.975543	610.732825	-454.724849	187.762346	617.706094	-368.325769	131.006373	665.826925	-417.398607	265.005969	392.954641	-404.986637	203.557056	436.307002	-472.250193	-185.036767	934.872596	-285.225568	-17.508421	79.629923	-485.319335	-17.466624	79.379149	-84.682203	
